<svg xmlns="http://www.w3.org/2000/svg" width="80" height="83" viewBox="0 0 80 83" fill="none">
<path d="M76.384 63.8609L77.4118 62.981C79.6825 61.0372 80.1908 57.2777 78.495 54.5974C76.8243 51.9569 73.6998 51.4353 71.4787 53.3367L54.8537 67.5854L54.7133 67.7058H54.5284H37.7782C36.2116 67.7058 35.0559 66.2452 35.0559 64.621C35.0559 62.9968 36.2116 61.5361 37.7782 61.5361H40.0004H48.8894C51.0034 61.5361 52.8339 59.5234 52.8339 56.8665C52.8339 54.2095 51.0034 52.1968 48.8894 52.1968H40.0004H37.7782H26.9031C22.9968 52.1968 19.1996 53.7419 16.1323 56.5864C16.1322 56.5865 16.132 56.5867 16.1318 56.5868L9.89668 62.4018L9.75263 62.5361H9.55566H4.44449C2.33052 62.5361 0.5 64.5489 0.5 67.2058V77.5452C0.5 80.2021 2.33052 82.2148 4.44449 82.2148H26.667H48.9589C52.8595 82.2148 56.6764 80.7604 59.8419 78.0541L76.384 63.8609ZM76.384 63.8609H76.3993L59.8424 78.0537L76.384 63.8609ZM31.1115 13.4242H31.6115V12.9242V3.87726C31.6115 1.93117 32.942 0.5 34.4448 0.5H41.1116C42.6144 0.5 43.9449 1.93117 43.9449 3.87726V12.9242V13.4242H44.4449H52.2228C53.7257 13.4242 55.0562 14.8554 55.0562 16.8015V24.556C55.0562 26.5021 53.7257 27.9332 52.2228 27.9332H44.4449H43.9449V28.4332V37.4802C43.9449 39.4263 42.6144 40.8574 41.1116 40.8574H34.4448C32.942 40.8574 31.6115 39.4263 31.6115 37.4802V28.4332V27.9332H31.1115H23.3336C21.8307 27.9332 20.5002 26.5021 20.5002 24.556V16.8015C20.5002 14.8554 21.8307 13.4242 23.3336 13.4242H31.1115Z" fill="#FCA311" stroke="black"/>
</svg>