<svg xmlns="http://www.w3.org/2000/svg" width="87" height="70" viewBox="0 0 87 70" fill="none">
  <g clip-path="url(#clip0_0_392)">
    <path d="M71.1112 5.25637L71.1114 5.2566L81.7279 15.9204C84.511 18.7195 84.511 23.2444 81.7279 26.0435L73.1076 34.7133V34.3804C73.1076 28.064 68.0199 22.9429 61.7326 22.9429H60.6587H60.6586H60.6586H60.6585H60.6584H60.6583H60.6582H60.6582H60.6581H60.658H60.6579H60.6579H60.6578H60.6577H60.6576H60.6576H60.6575H60.6574H60.6573H60.6573H60.6572H60.6571H60.657H60.657H60.6569H60.6568H60.6567H60.6567H60.6566H60.6565H60.6565H60.6564H60.6563H60.6562H60.6562H60.6561H60.656H60.656H60.6559H60.6558H60.6558H60.6557H60.6556H60.6556H60.6555H60.6554H60.6554H60.6553H60.6552H60.6552H60.6551H60.655H60.655H60.6549H60.6548H60.6548H60.6547H60.6547H60.6546H60.6545H60.6545H60.6544H60.6543H60.6543H60.6542H60.6542H60.6541H60.654H60.654H60.6539H60.6539H60.6538H60.6537H60.6537H60.6536H60.6536H60.6535H60.6535H60.6534H60.6533H60.6533H60.6532H60.6532H60.6531H60.6531H60.653H60.6529H60.6529H60.6528H60.6528H60.6527H60.6527H60.6526H60.6526H60.6525H60.6525H60.6524H60.6524H60.6523H60.6523H60.6522H60.6521H60.6521H60.652H60.652H60.6519H60.6519H60.6518H60.6518H60.6517H60.6517H60.6516H60.6516H60.6516H60.6515H60.6515H60.6514H60.6514H60.6513H60.6513H60.6512H60.6512H60.6511H60.6511H60.651H60.651H60.6509H60.6509H60.6509H60.6508H60.6508H60.6507H60.6507H60.6506H60.6506H60.6505H60.6505H60.6505H60.6504H60.6504H60.6503H60.6503H60.6502H60.6502H60.6502H60.6501H60.6501H60.65H60.65H60.65H60.6499H60.6499H60.6498H60.6498H60.6498H60.6497H60.6497H60.6496H60.6496H60.6496H60.6495H60.6495H60.6495H60.6494H60.6494H60.6493H60.6493H60.6493H60.6492H60.6492H60.6492H60.6491H60.6491H60.6491H60.649H60.649H60.649H60.6489H60.6489H60.6489H60.6488H60.6488H60.6488H60.6487H60.6487H60.6487H60.6486H60.6486H60.6486H60.6485H60.6485H60.6485H60.6484H60.6484H60.6484H60.6483H60.6483H60.6483H60.6483H60.6482H60.6482H60.6481H60.6481H60.648H60.648H60.6479H60.6479H60.6479H60.6478H60.6477H60.6477H60.6476H60.6476H60.6475H60.6475H60.6474H60.6474H60.6473H60.6473H60.6472H60.6472H60.6472H60.6471H60.6471H60.647H60.647H60.6469H60.6469H60.6469H60.6468H60.6468H60.6467H60.6467H60.6467H60.6466H60.6466H60.6465H60.6465H60.6465H60.6464H60.6464H60.6464H60.6463H60.6463H60.6463H60.6463H60.6462H60.6462H60.6461H60.6461H60.6461H60.646H60.646H60.646H60.6459H60.6459H60.6458H60.6458H60.6458H60.6457H60.6457H60.6457H60.6456H60.6456H60.6456H60.6455H60.6455H60.6455H60.6454H60.6454H60.6454H60.6454H60.6453H60.6453H60.6453H60.6452H60.6452H60.6452H60.6451H42.1576H39.9826H39.4826V23.4429V25.6167V25.6304V35.4741C39.4826 38.2222 37.2705 40.4429 34.5451 40.4429C31.8197 40.4429 29.6076 38.2222 29.6076 35.4741V19.5679H29.6098L29.659 19.1228C30.1753 14.449 34.112 10.8179 38.8951 10.8179H54.1201C54.4774 10.8179 54.8388 10.8436 55.1929 10.8832L55.4328 10.91L55.603 10.7388L61.0541 5.25637C63.8356 2.45884 68.3296 2.45884 71.1112 5.25637ZM44.8326 35.4741V28.3316H60.6451C64.567 28.3316 67.7449 31.5236 67.7576 35.4621V35.5133C67.7449 38.9919 65.2786 41.8785 62.0172 42.5167L61.1246 42.6913L61.7504 43.3513C62.78 44.4374 63.4076 45.9014 63.4076 47.5191C63.4076 50.8687 60.7061 53.5816 57.3826 53.5816H57.0156H56.3188L56.5419 54.2417C56.7572 54.8784 56.8826 55.5627 56.8826 56.2691C56.8826 59.6187 54.1811 62.3316 50.8576 62.3316H29.1076C29.0627 62.3316 29.0155 62.3291 28.952 62.3255L28.9471 62.3252C28.889 62.322 28.8159 62.3179 28.7406 62.3179H28.5326L28.386 62.4654L23.2612 67.6197C20.4796 70.4172 15.9856 70.4172 13.2041 67.6197L2.58734 56.9419C-0.19578 54.1428 -0.19578 49.618 2.58734 46.8189L12.538 36.8111L12.6289 36.7196L12.6643 36.5955L14.9072 28.7205L14.9075 28.7194C16.1852 24.1966 19.8269 20.8569 24.2576 19.8681V35.4741C24.2576 41.189 28.856 45.8179 34.5451 45.8179C40.2343 45.8179 44.8326 41.189 44.8326 35.4741Z" fill="#FCA311" stroke="black"/>
  </g>
  <defs>
    <clipPath id="clip0_0_392">
      <rect width="87" height="70" fill="white"/>
    </clipPath>
  </defs>
</svg>