<svg xmlns="http://www.w3.org/2000/svg" width="60" height="50" viewBox="0 0 60 50" fill="none">
  <g clip-path="url(#clip0_0_382)">
    <path d="M29.8558 6.25C17.6665 6.25 7.77707 14.6484 7.77707 25C7.77707 35.3516 17.6665 43.75 29.8558 43.75C31.8912 43.75 33.5356 45.1465 33.5356 46.875C33.5356 48.6035 31.8912 50 29.8558 50C13.5957 50 0.41748 38.8086 0.41748 25C0.41748 11.1914 13.5957 0 29.8558 0C46.1159 0 59.2942 11.1914 59.2942 25V28.125C59.2942 33.3008 54.3495 37.5 48.2548 37.5C44.8855 37.5 41.8612 36.2109 39.8373 34.1895C37.2154 36.2402 33.7081 37.5 29.8558 37.5C21.7258 37.5 15.1367 31.9043 15.1367 25C15.1367 18.0957 21.7258 12.5 29.8558 12.5C33.0642 12.5 36.031 13.3691 38.4459 14.8535C39.1013 14.3652 39.9523 14.0625 40.8952 14.0625C42.9306 14.0625 44.575 15.459 44.575 17.1875V25V28.125C44.575 29.8535 46.2194 31.25 48.2548 31.25C50.2902 31.25 51.9346 29.8535 51.9346 28.125V25C51.9346 14.6484 42.0452 6.25 29.8558 6.25ZM37.2154 25C37.2154 23.3424 36.44 21.7527 35.0599 20.5806C33.6797 19.4085 31.8077 18.75 29.8558 18.75C27.904 18.75 26.032 19.4085 24.6518 20.5806C23.2716 21.7527 22.4962 23.3424 22.4962 25C22.4962 26.6576 23.2716 28.2473 24.6518 29.4194C26.032 30.5915 27.904 31.25 29.8558 31.25C31.8077 31.25 33.6797 30.5915 35.0599 29.4194C36.44 28.2473 37.2154 26.6576 37.2154 25Z" fill="black"/>
  </g>
  <defs>
    <clipPath id="clip0_0_382">
      <rect width="58.8767" height="50" fill="white" transform="translate(0.41748)"/>
    </clipPath>
  </defs>
</svg>