<svg xmlns="http://www.w3.org/2000/svg" width="35" height="33" viewBox="0 0 35 33" fill="none">
  <g clip-path="url(#clip0_0_386)">
    <path d="M17.2475 2.94812C21.8558 2.94812 22.4015 2.96731 24.2138 3.04405C25.8981 3.1144 26.8077 3.38299 27.414 3.60682C28.2158 3.90099 28.7952 4.25911 29.3948 4.82827C30.0012 5.40383 30.3717 5.94741 30.6816 6.70842C30.9174 7.28398 31.2004 8.15371 31.2745 9.74608C31.3554 11.4727 31.3756 11.9907 31.3756 16.3586C31.3756 20.7328 31.3554 21.2508 31.2745 22.9711C31.2004 24.5698 30.9174 25.4332 30.6816 26.0087C30.3717 26.7697 29.9944 27.3197 29.3948 27.8889C28.7884 28.4644 28.2158 28.8162 27.414 29.1103C26.8077 29.3342 25.8914 29.6028 24.2138 29.6731C22.3948 29.7498 21.849 29.769 17.2475 29.769C12.6392 29.769 12.0934 29.7498 10.2811 29.6731C8.59678 29.6028 7.68725 29.3342 7.08089 29.1103C6.27916 28.8162 5.69975 28.458 5.10013 27.8889C4.49377 27.3133 4.12322 26.7697 3.81331 26.0087C3.5775 25.4332 3.29454 24.5634 3.22043 22.9711C3.13958 21.2444 3.11937 20.7264 3.11937 16.3586C3.11937 11.9844 3.13958 11.4664 3.22043 9.74608C3.29454 8.14731 3.5775 7.28398 3.81331 6.70842C4.12322 5.94741 4.50051 5.39743 5.10013 4.82827C5.70649 4.25272 6.27916 3.90099 7.08089 3.60682C7.68725 3.38299 8.60352 3.1144 10.2811 3.04405C12.0934 2.96731 12.6392 2.94812 17.2475 2.94812ZM17.2475 0C12.565 0 11.9789 0.0191852 10.1396 0.095926C8.30708 0.172667 7.04721 0.454049 5.95577 0.856939C4.81716 1.27901 3.85373 1.83538 2.89704 2.74988C1.9336 3.65798 1.34746 4.57247 0.902797 5.64684C0.478348 6.68924 0.181907 7.87872 0.101059 9.61818C0.0202119 11.3704 0 11.9268 0 16.3714C0 20.8159 0.0202119 21.3723 0.101059 23.1182C0.181907 24.8576 0.478348 26.0535 0.902797 27.0895C1.34746 28.1703 1.9336 29.0848 2.89704 29.9929C3.85373 30.901 4.81716 31.4637 5.94903 31.8794C7.04721 32.2823 8.30034 32.5637 10.1329 32.6404C11.9722 32.7171 12.5583 32.7363 17.2407 32.7363C21.9231 32.7363 22.5093 32.7171 24.3486 32.6404C26.1811 32.5637 27.441 32.2823 28.5324 31.8794C29.6643 31.4637 30.6277 30.901 31.5844 29.9929C32.5411 29.0848 33.134 28.1703 33.5719 27.0959C33.9964 26.0535 34.2928 24.864 34.3737 23.1246C34.4545 21.3787 34.4747 20.8223 34.4747 16.3778C34.4747 11.9332 34.4545 11.3768 34.3737 9.63097C34.2928 7.89151 33.9964 6.69563 33.5719 5.65963C33.1475 4.57247 32.5613 3.65798 31.5979 2.74988C30.6412 1.84178 29.6778 1.27901 28.5459 0.863334C27.4477 0.460445 26.1946 0.179062 24.362 0.102321C22.516 0.0191852 21.9299 0 17.2475 0Z" fill="black"/>
    <path d="M17.2475 7.96185C12.3562 7.96185 8.38794 11.7285 8.38794 16.3714C8.38794 21.0142 12.3562 24.7809 17.2475 24.7809C22.1387 24.7809 26.107 21.0142 26.107 16.3714C26.107 11.7285 22.1387 7.96185 17.2475 7.96185ZM17.2475 21.8264C14.0742 21.8264 11.5006 19.3834 11.5006 16.3714C11.5006 13.3593 14.0742 10.9164 17.2475 10.9164C20.4207 10.9164 22.9944 13.3593 22.9944 16.3714C22.9944 19.3834 20.4207 21.8264 17.2475 21.8264Z" fill="black"/>
    <path d="M28.5257 7.62924C28.5257 8.7164 27.596 9.59253 26.4574 9.59253C25.312 9.59253 24.389 8.71001 24.389 7.62924C24.389 6.54208 25.3188 5.66595 26.4574 5.66595C27.596 5.66595 28.5257 6.54847 28.5257 7.62924Z" fill="black"/>
  </g>
  <defs>
    <clipPath id="clip0_0_386">
      <rect width="34.4949" height="32.7427" fill="white"/>
    </clipPath>
  </defs>
</svg>