<svg xmlns="http://www.w3.org/2000/svg" width="71" height="64" viewBox="0 0 71 64" fill="none">
  <path d="M0 64L4.9907 47.5653C1.91108 42.7547 0.292874 37.3013 0.295833 31.7093C0.304708 14.2267 16.0874 0 35.4792 0C44.8897 0.00266667 53.7232 3.30667 60.3676 9.30133C67.0091 15.296 70.6656 23.264 70.6626 31.7387C70.6537 49.224 54.871 63.4507 35.4792 63.4507C29.5921 63.448 23.7909 62.1173 18.6523 59.5893L0 64ZM19.5161 53.848C24.4742 56.5013 29.2076 58.0907 35.4674 58.0933C51.5843 58.0933 64.7134 46.2693 64.7223 31.7333C64.7282 17.168 51.6613 5.36 35.491 5.35467C19.3622 5.35467 6.24207 17.1787 6.23615 31.712C6.23319 37.6453 8.16202 42.088 11.4014 46.736L8.44602 56.464L19.5161 53.848ZM53.2026 39.2773C52.9836 38.9467 52.3979 38.7493 51.5163 38.352C50.6377 37.9547 46.3156 36.0373 45.5079 35.7733C44.7033 35.5093 44.1175 35.376 43.5288 36.1707C42.9431 36.9627 41.2568 38.7493 40.745 39.2773C40.2332 39.8053 39.7185 39.872 38.8399 39.4747C37.9612 39.0773 35.1272 38.2427 31.7695 35.5413C29.1573 33.44 27.3911 30.8453 26.8794 30.0507C26.3676 29.2587 26.8261 28.8293 27.2639 28.4347C27.6604 28.08 28.1426 27.5093 28.5834 27.0453C29.0301 26.5867 29.175 26.256 29.4709 25.7253C29.7637 25.1973 29.6188 24.7333 29.3969 24.336C29.175 23.9413 27.4178 20.04 26.6871 18.4533C25.9712 16.9093 25.2464 17.1173 24.7079 17.0933L23.0217 17.0667C22.436 17.0667 21.4834 17.264 20.6787 18.0587C19.874 18.8533 17.602 20.768 17.602 24.6693C17.602 28.5707 20.7527 32.3387 21.1905 32.8667C21.6313 33.3947 27.3882 41.4 36.207 44.832C38.3044 45.648 39.9433 46.136 41.2184 46.5013C43.3247 47.104 45.2417 47.0187 46.7564 46.816C48.4456 46.5893 51.9571 44.8987 52.6908 43.048C53.4244 41.1947 53.4244 39.608 53.2026 39.2773Z" fill="white" fill-opacity="0.98"/>
</svg>