<svg width="35" height="33" viewBox="0 0 35 33" fill="none" xmlns="http://www.w3.org/2000/svg">
<g id="Social Icons">
<path id="Vector" d="M0 32.7427L2.42471 24.3347C0.928488 21.8735 0.142292 19.0836 0.143729 16.2227C0.148041 7.27844 7.81598 0 17.2374 0C21.8094 0.00136428 26.1012 1.69171 29.3293 4.75861C32.556 7.82551 34.3325 11.902 34.3311 16.2377C34.3268 25.1833 26.6588 32.4617 17.2374 32.4617C14.3772 32.4603 11.5587 31.7796 9.06211 30.4862L0 32.7427ZM9.48179 27.5489C11.8907 28.9064 14.1904 29.7195 17.2317 29.7209C25.062 29.7209 31.4407 23.6716 31.445 16.2349C31.4479 8.78324 25.0994 2.7422 17.2432 2.73948C9.40705 2.73948 3.03268 8.7887 3.0298 16.224C3.02837 19.2595 3.96548 21.5324 5.53931 23.9104L4.10346 28.8873L9.48179 27.5489ZM25.8482 20.0945C25.7418 19.9253 25.4573 19.8244 25.0289 19.6211C24.6021 19.4178 22.5022 18.4369 22.1098 18.3018C21.7189 18.1668 21.4343 18.0985 21.1483 18.5051C20.8637 18.9103 20.0444 19.8244 19.7958 20.0945C19.5471 20.3646 19.297 20.3987 18.8702 20.1954C18.4433 19.9922 17.0664 19.5651 15.435 18.1831C14.1659 17.1081 13.3079 15.7806 13.0592 15.3741C12.8106 14.9689 13.0333 14.7492 13.2461 14.5473C13.4386 14.3659 13.6729 14.0739 13.8871 13.8365C14.1041 13.6019 14.1745 13.4327 14.3183 13.1612C14.4606 12.8911 14.3901 12.6537 14.2823 12.4504C14.1745 12.2485 13.3208 10.2526 12.9658 9.44082C12.618 8.6509 12.2658 8.75732 12.0042 8.74504L11.185 8.7314C10.9004 8.7314 10.4376 8.83235 10.0466 9.23891C9.65571 9.64546 8.55187 10.625 8.55187 12.621C8.55187 14.6169 10.0826 16.5446 10.2953 16.8148C10.5095 17.0849 13.3064 21.1805 17.591 22.9363C18.61 23.3538 19.4063 23.6034 20.0257 23.7903C21.0491 24.0987 21.9805 24.055 22.7163 23.9513C23.537 23.8353 25.2431 22.9704 25.5996 22.0236C25.956 21.0754 25.956 20.2637 25.8482 20.0945Z" fill="black"/>
</g>
</svg>
