<svg width="36" height="35" viewBox="0 0 36 35" fill="none" xmlns="http://www.w3.org/2000/svg">
<g id="Social Icons">
<path id="Vector" d="M34.67 10.4368C34.67 10.4368 34.3332 8.0382 33.2956 6.98502C31.9819 5.59889 30.5131 5.59209 29.8394 5.51055C25.0155 5.15723 17.7729 5.15723 17.7729 5.15723H17.7594C17.7594 5.15723 10.5168 5.15723 5.69295 5.51055C5.01922 5.59209 3.55049 5.59889 2.23672 6.98502C1.19917 8.0382 0.869046 10.4368 0.869046 10.4368C0.869046 10.4368 0.518707 13.2566 0.518707 16.0696V18.706C0.518707 21.519 0.862309 24.3388 0.862309 24.3388C0.862309 24.3388 1.19917 26.7374 2.22998 27.7906C3.54375 29.1767 5.2685 29.1291 6.03655 29.2786C8.79884 29.5436 17.7662 29.6251 17.7662 29.6251C17.7662 29.6251 25.0155 29.6116 29.8394 29.265C30.5131 29.1835 31.9819 29.1767 33.2956 27.7906C34.3332 26.7374 34.67 24.3388 34.67 24.3388C34.67 24.3388 35.0136 21.5258 35.0136 18.706V16.0696C35.0136 13.2566 34.67 10.4368 34.67 10.4368ZM14.2021 21.9063V12.1286L23.5198 17.0345L14.2021 21.9063Z" fill="black"/>
<rect x="1.01871" y="0.5" width="33.4949" height="33.7892" stroke="#FEFEFE"/>
</g>
</svg>
